HIERARCHY
ROOT Hips
{
	OFFSET 0.00000 0.00000 0.00000
	CHANNELS 6 Xposition Yposition Zposition Zrotation Yrotation Xrotation 
	JOINT LHipJoint
	{
		OFFSET 0 0 0
		CHANNELS 3 Zrotation Yrotation Xrotation
		JOINT LeftHip
		{
			OFFSET 1.48831 -1.59570 0.95625
			CHANNELS 3 Zrotation Yrotation Xrotation
			JOINT LeftKnee
			{
				OFFSET 2.20856 -6.06797 0.00000
				CHANNELS 3 Zrotation Yrotation Xrotation
				JOINT LeftAnkle
				{
					OFFSET 2.62924 -7.22379 0.00000
					CHANNELS 3 Zrotation Yrotation Xrotation
					JOINT LeftToe
					{
						OFFSET 0.16802 -0.46163 2.41673
						CHANNELS 3 Zrotation Yrotation Xrotation
						End Site
						{
							OFFSET 0.00000 -0.00000 1.23760
						}
					}
				}
			}
		}
	}
	JOINT RHipJoint
	{
		OFFSET 0 0 0
		CHANNELS 3 Zrotation Yrotation Xrotation
		JOINT RightHip
		{
			OFFSET -1.56796 -1.59570 0.95625
			CHANNELS 3 Zrotation Yrotation Xrotation
			JOINT RightKnee
			{
				OFFSET -2.29239 -6.29829 0.00000
				CHANNELS 3 Zrotation Yrotation Xrotation
				JOINT RightAnkle
				{
					OFFSET -2.66963 -7.33475 0.00000
					CHANNELS 3 Zrotation Yrotation Xrotation
					JOINT RightToe
					{
						OFFSET -0.18185 -0.49964 2.34359
						CHANNELS 3 Zrotation Yrotation Xrotation
						End Site
						{
							OFFSET -0.00000 -0.00000 1.20477
						}
					}
				}
			}
		}
	}
	JOINT lowerback
	{
		OFFSET 0 0 0
		CHANNELS 3 Zrotation Yrotation Xrotation
		JOINT Chest
		{
			OFFSET 0.03505 2.15832 -0.34324
			CHANNELS 3 Zrotation Yrotation Xrotation
			JOINT Chest2
			{
				OFFSET -0.01089 2.17963 0.04689
				CHANNELS 3 Zrotation Yrotation Xrotation
				JOINT lowerneck
				{
					OFFSET 0 0 0
					CHANNELS 3 Zrotation Yrotation Xrotation
					JOINT Neck
					{
						OFFSET 0.04686 1.69404 0.22159
						CHANNELS 3 Zrotation Yrotation Xrotation
						JOINT Head
						{
							OFFSET 0.00265 1.69305 -0.01513
							CHANNELS 3 Zrotation Yrotation Xrotation
							End Site
							{
								OFFSET -0.00415 1.80215 -0.03034
							}
						}
					}
				}
				JOINT LeftCollar
				{
					OFFSET 0 0 0
					CHANNELS 3 Zrotation Yrotation Xrotation
					JOINT LeftShoulder
					{
						OFFSET 3.67184 1.11724 -0.19002
CHANNELS 3 Zrotation Xrotation Yrotation
						JOINT LeftElbow
						{
OFFSET 0 -5.177140 -0.000000
CHANNELS 3 Zrotation Xrotation Yrotation
							JOINT LeftWrist
							{
OFFSET 0 -3.436790 -0.000000
CHANNELS 3 Zrotation Xrotation Yrotation
								JOINT lhand
								{
									OFFSET 0 0 0
CHANNELS 3 Zrotation Xrotation Yrotation
									JOINT LFingers
									{
OFFSET 0 -0.573120 -0.000000
CHANNELS 3 Zrotation Xrotation Yrotation
										End Site
										{
OFFSET 0 -0.462060 -0.000000
										}
									}
								}
								JOINT LThumb
								{
OFFSET 0 0.000000 0.000000
CHANNELS 3 Zrotation Xrotation Yrotation
									End Site
									{
OFFSET 0 -0.469120 0.469120
									}
								}
							}
						}
					}
				}
				JOINT RightCollar
				{
					OFFSET 0 0 0
					CHANNELS 3 Zrotation Yrotation Xrotation
					JOINT RightShoulder
					{
						OFFSET -3.59596 0.95831 -0.26050
CHANNELS 3 Zrotation Xrotation Yrotation
						JOINT RightElbow
						{
OFFSET 0 -5.239080 -0.000000
CHANNELS 3 Zrotation Xrotation Yrotation
							JOINT RightWrist
							{
OFFSET 0 -3.464850 -0.000000
CHANNELS 3 Zrotation Xrotation Yrotation
								JOINT rhand
								{
									OFFSET 0 0 0
CHANNELS 3 Zrotation Xrotation Yrotation
									JOINT RFingers
									{
OFFSET 0 -0.608750 -0.000000
CHANNELS 3 Zrotation Xrotation Yrotation
										End Site
										{
OFFSET 0 -0.490790 -0.000000
										}
									}
								}
								JOINT RThumb
								{
OFFSET 0 0.000000 0.000000
CHANNELS 3 Zrotation Xrotation Yrotation
									End Site
									{
OFFSET 0 -0.498290 0.498290
									}
								}
							}
						}
					}
				}
			}
		}
	}
}
MOTION
Frames: 7
Frame Time: 0.008333333333333333
40.492600 16.060200 -17.103000 -50.254400 -80.306600 49.058400 0.000000 0.000000 0.000000 -12.592300 3.504500 -3.779200 1.577400 7.923900 22.483100 1.659200 10.764200 -30.280800 0.078900 1.812300 4.987300 0.000000 0.000000 0.000000 27.046000 2.826000 -6.630400 -2.375100 -9.607300 27.714100 -1.545000 -8.610500 -27.978800 -0.002400 -0.316300 0.869000 5.232400 -1.318200 -3.176000 2.137900 -2.264900 3.986600 -0.889400 -0.976800 5.825100 -1.610600 -4.163700 -8.567700 4.106600 -6.756600 20.494900 0.965200 -3.106500 7.932000 -0.000000 0.000000 0.000000 -0.037100 -4.037200 -20.510100 13.053800 -21.365900 2.472800 14.020400 -12.755800 -11.534700 0.000000 0.000000 0.000000 -7.125000 0.000000 0.000000 -11.698300 41.569000 -1.005300 -0.000000 0.000000 0.000000 -0.241700 1.243900 15.131500 -15.768700 -25.206000 -3.546900 -19.165300 1.460400 5.201000 0.000000 0.000000 0.000000 7.125000 0.000000 -0.000000 6.265300 35.427100 1.480800
40.513146 16.066245 -17.111818 -47.934201 -80.075942 46.985332 0.000000 0.000000 0.000000 -12.610537 3.463531 -4.238932 1.576506 7.921940 22.477158 1.606372 10.563319 -29.789477 0.070658 1.714709 4.717866 0.000000 0.000000 0.000000 26.989372 3.012059 -6.849614 -2.353731 -9.567023 27.585597 -1.573140 -8.760775 -28.276155 -0.007583 -0.561826 1.543821 5.104905 -1.371976 -3.068660 2.135040 -2.316420 3.928801 -0.821677 -1.010578 5.703145 -1.652032 -4.169344 -8.523707 4.205351 -6.774493 20.448111 1.004199 -3.109806 7.914058 0.000000 0.000000 0.000000 0.003962 -4.020791 -20.799699 13.169040 -21.534387 2.514978 14.016437 -12.901171 -11.716362 0.000000 0.000000 0.000000 -7.125000 0.000000 0.000000 -11.743672 41.751056 -0.955830 0.000000 0.000000 0.000000 -0.252263 1.196731 15.189665 -15.844500 -25.309327 -3.579216 -19.016577 1.690973 5.891890 0.000000 0.000000 0.000000 7.125000 0.000000 0.000000 6.466719 36.144912 1.415043
40.539717 16.074442 -17.116276 -47.027401 -80.058723 46.307544 0.000000 0.000000 0.000000 -12.711688 3.400188 -4.596132 1.568021 7.901542 22.415475 1.569088 10.556499 -29.539848 0.069994 1.706993 4.696626 0.000000 0.000000 0.000000 26.874935 3.166492 -7.184058 -2.355676 -9.570727 27.597406 -1.559820 -8.875345 -28.263929 -0.008752 -0.603232 1.657689 5.064333 -1.334423 -2.912047 2.109724 -2.247830 3.888671 -0.815395 -0.980770 5.574245 -1.604906 -4.177987 -8.569456 4.154698 -6.786384 20.507695 0.977193 -3.114463 7.939150 0.000000 0.000000 0.000000 0.053294 -4.068496 -20.978861 13.213924 -21.599789 2.531471 14.055819 -12.889027 -11.795984 0.000000 0.000000 0.000000 -7.125000 0.000000 0.000000 -11.727833 41.834836 -0.929857 0.000000 0.000000 0.000000 -0.275554 1.085979 15.341941 -15.887507 -25.367890 -3.597649 -19.115657 1.449624 5.679894 0.000000 0.000000 0.000000 7.125000 0.000000 0.000000 6.359644 35.927648 1.425360
40.557630 16.078132 -17.116932 -46.242895 -79.947027 45.656311 0.000000 0.000000 0.000000 -12.717448 3.417106 -4.864133 1.567219 7.899607 22.409461 1.544658 10.454520 -29.301584 0.067092 1.670637 4.596335 0.000000 0.000000 0.000000 26.817597 3.061378 -7.453186 -2.359040 -9.576907 27.617239 -1.545868 -8.886895 -28.176317 -0.008414 -0.591370 1.625027 5.132496 -1.318549 -2.862615 2.107546 -2.228477 3.909416 -0.852920 -0.968504 5.566725 -1.616220 -4.171607 -8.563626 4.125197 -6.779489 20.623635 0.969186 -3.113919 7.975699 0.000000 0.000000 0.000000 0.094987 -4.119732 -21.151939 13.232250 -21.626584 2.538224 14.052322 -12.896058 -11.971522 0.000000 0.000000 0.000000 -7.125000 0.000000 0.000000 -11.772112 42.010672 -0.881621 0.000000 0.000000 0.000000 -0.328845 0.921014 15.519357 -15.968474 -25.477862 -3.632424 -19.152202 1.370667 5.909038 0.000000 0.000000 0.000000 7.125000 0.000000 0.000000 6.355409 36.170219 1.386598
40.573659 16.081645 -17.122987 -45.115800 -79.862822 44.622388 0.000000 0.000000 0.000000 -12.772428 3.421954 -5.062905 1.559242 7.880429 22.351437 1.506140 10.417979 -29.016522 0.061219 1.596302 4.391198 0.000000 0.000000 0.000000 26.752261 3.116252 -7.621259 -2.367800 -9.593500 27.670152 -1.549800 -8.993853 -28.278077 -0.008800 -0.606675 1.667133 5.037174 -1.322514 -2.796628 2.101848 -2.223868 3.921924 -0.803919 -0.970381 5.544831 -1.643579 -4.170484 -8.545850 4.138686 -6.790485 20.766508 0.976259 -3.119723 8.021911 0.000000 0.000000 0.000000 0.139941 -4.150535 -21.245624 13.199171 -21.578337 2.526033 14.121677 -12.865393 -11.929655 0.000000 0.000000 0.000000 -7.125000 0.000000 0.000000 -11.701430 41.975407 -0.886502 0.000000 0.000000 0.000000 -0.378783 0.840791 15.687985 -16.059169 -25.600771 -3.671479 -19.288106 1.168996 5.801448 0.000000 0.000000 0.000000 7.125000 0.000000 0.000000 6.229775 36.064393 1.375022
40.585579 16.081100 -17.125353 -44.583854 -79.701427 44.042176 0.000000 0.000000 0.000000 -12.686574 3.487963 -5.170694 1.569995 7.906142 22.429426 1.487848 10.299811 -28.804023 0.055858 1.525511 4.196091 0.000000 0.000000 0.000000 26.794042 2.964475 -7.646789 -2.364563 -9.587405 27.650747 -1.541568 -9.042873 -28.255989 -0.008100 -0.581821 1.598885 5.119605 -1.329779 -2.646980 2.105905 -2.229337 3.934704 -0.841905 -0.971958 5.470026 -1.675852 -4.173579 -8.442083 4.171816 -6.807910 20.849793 0.992453 -3.129926 8.033699 0.000000 0.000000 0.000000 0.211815 -3.997200 -21.402389 13.246932 -21.647964 2.543663 14.051353 -12.934279 -11.909646 0.000000 0.000000 0.000000 -7.125000 0.000000 0.000000 -11.758310 41.948572 -0.898842 0.000000 0.000000 0.000000 -0.422109 0.837881 15.839213 -16.122631 -25.686716 -3.698995 -19.261643 1.111643 5.899009 0.000000 0.000000 0.000000 7.125000 0.000000 0.000000 6.262994 36.165582 1.366932
40.592481 16.081300 -17.128836 -44.164615 -79.655857 43.591903 0.000000 0.000000 0.000000 -12.690356 3.499770 -5.198258 1.571808 7.910635 22.443076 1.473664 10.280183 -28.692949 0.052855 1.483530 4.080225 0.000000 0.000000 0.000000 26.784626 2.947661 -7.655094 -2.369218 -9.596163 27.678535 -1.547873 -9.062634 -28.313000 -0.008845 -0.606285 1.666065 5.107747 -1.314669 -2.577693 2.101637 -2.205917 3.970871 -0.836605 -0.960686 5.469859 -1.711441 -4.197606 -8.472831 4.160481 -6.839068 20.929524 0.990163 -3.147016 8.067814 0.000000 0.000000 0.000000 0.264286 -3.999044 -21.403081 13.162422 -21.524751 2.512581 14.156182 -12.805437 -12.229533 0.000000 0.000000 0.000000 -7.125000 0.000000 0.000000 -11.742139 42.279992 -0.800036 0.000000 0.000000 0.000000 -0.480632 0.782718 15.929795 -16.118580 -25.681209 -3.697194 -19.289957 1.076325 5.968204 0.000000 0.000000 0.000000 7.125000 0.000000 0.000000 6.247349 36.239875 1.352058
